<svg width="27" height="29" viewBox="0 0 27 29" fill="none" xmlns="http://www.w3.org/2000/svg">
<path d="M1.852 28.36C1.948 25.144 1.996 22.096 1.996 19.216C2.02 16.336 1.948 13.468 1.78 10.612C1.636 7.756 1.372 4.768 0.988 1.648L6.496 0.711999C6.616 2.944 6.688 5.188 6.712 7.444C6.736 9.7 6.712 11.968 6.64 14.248C6.592 16.504 6.496 18.76 6.352 21.016C6.208 23.248 6.04 25.456 5.848 27.64L1.852 28.36ZM21.5043 28.36C21.6003 25.144 21.6483 22.096 21.6483 19.216C21.6723 16.336 21.6003 13.468 21.4323 10.612C21.2883 7.756 21.0243 4.768 20.6403 1.648L26.1483 0.711999C26.2683 2.944 26.3403 5.188 26.3643 7.444C26.3883 9.7 26.3643 11.968 26.2923 14.248C26.2443 16.504 26.1483 18.76 26.0043 21.016C25.8603 23.248 25.6923 25.456 25.5003 27.64L21.5043 28.36Z" fill="white"/>
</svg>
